<mxfile host="app.diagrams.net" modified="2023-03-29T00:21:34.563Z" agent="Mozilla/5.0 (Windows NT 10.0; Win64; x64) AppleWebKit/537.36 (KHTML, like Gecko) Chrome/111.0.0.0 Safari/537.36" etag="i3UQcW8Ev8exw3wA5spe" version="21.1.1" type="github">
  <diagram id="C5RBs43oDa-KdzZeNtuy" name="Page-1">
    <mxGraphModel dx="704" dy="370" grid="1" gridSize="10" guides="1" tooltips="1" connect="1" arrows="1" fold="1" page="1" pageScale="1" pageWidth="827" pageHeight="1169" math="0" shadow="0">
      <root>
        <mxCell id="WIyWlLk6GJQsqaUBKTNV-0" />
        <mxCell id="WIyWlLk6GJQsqaUBKTNV-1" parent="WIyWlLk6GJQsqaUBKTNV-0" />
        <mxCell id="IuVR1FB6oGhCAJvoYXbv-3" value="" style="rounded=0;html=1;jettySize=auto;orthogonalLoop=1;fontSize=11;endArrow=block;endFill=0;endSize=8;strokeWidth=1;shadow=0;labelBackgroundColor=none;edgeStyle=orthogonalEdgeStyle;" edge="1" parent="WIyWlLk6GJQsqaUBKTNV-1">
          <mxGeometry relative="1" as="geometry">
            <mxPoint x="395" y="250" as="sourcePoint" />
            <mxPoint x="395" y="400" as="targetPoint" />
          </mxGeometry>
        </mxCell>
        <mxCell id="IuVR1FB6oGhCAJvoYXbv-11" style="edgeStyle=orthogonalEdgeStyle;rounded=0;orthogonalLoop=1;jettySize=auto;html=1;entryX=0.583;entryY=-0.05;entryDx=0;entryDy=0;entryPerimeter=0;fontFamily=Helvetica;fontSize=12;fontColor=default;" edge="1" parent="WIyWlLk6GJQsqaUBKTNV-1" source="IuVR1FB6oGhCAJvoYXbv-4" target="IuVR1FB6oGhCAJvoYXbv-7">
          <mxGeometry relative="1" as="geometry">
            <Array as="points">
              <mxPoint x="170" y="105" />
            </Array>
          </mxGeometry>
        </mxCell>
        <mxCell id="IuVR1FB6oGhCAJvoYXbv-12" style="edgeStyle=orthogonalEdgeStyle;rounded=0;orthogonalLoop=1;jettySize=auto;html=1;entryX=0.5;entryY=0;entryDx=0;entryDy=0;fontFamily=Helvetica;fontSize=12;fontColor=default;" edge="1" parent="WIyWlLk6GJQsqaUBKTNV-1" source="IuVR1FB6oGhCAJvoYXbv-4" target="IuVR1FB6oGhCAJvoYXbv-8">
          <mxGeometry relative="1" as="geometry" />
        </mxCell>
        <mxCell id="IuVR1FB6oGhCAJvoYXbv-13" style="edgeStyle=orthogonalEdgeStyle;rounded=0;orthogonalLoop=1;jettySize=auto;html=1;entryX=0.575;entryY=-0.05;entryDx=0;entryDy=0;entryPerimeter=0;fontFamily=Helvetica;fontSize=12;fontColor=default;" edge="1" parent="WIyWlLk6GJQsqaUBKTNV-1" source="IuVR1FB6oGhCAJvoYXbv-4" target="IuVR1FB6oGhCAJvoYXbv-9">
          <mxGeometry relative="1" as="geometry" />
        </mxCell>
        <mxCell id="IuVR1FB6oGhCAJvoYXbv-14" style="edgeStyle=orthogonalEdgeStyle;rounded=0;orthogonalLoop=1;jettySize=auto;html=1;entryX=0.5;entryY=0;entryDx=0;entryDy=0;fontFamily=Helvetica;fontSize=12;fontColor=default;" edge="1" parent="WIyWlLk6GJQsqaUBKTNV-1" source="IuVR1FB6oGhCAJvoYXbv-4" target="IuVR1FB6oGhCAJvoYXbv-10">
          <mxGeometry relative="1" as="geometry" />
        </mxCell>
        <mxCell id="IuVR1FB6oGhCAJvoYXbv-4" value="Identificação de Hidrato de gás" style="rounded=1;whiteSpace=wrap;html=1;shadow=0;glass=0;strokeColor=default;strokeWidth=1;fontFamily=Helvetica;fontSize=12;fontColor=default;fillColor=default;" vertex="1" parent="WIyWlLk6GJQsqaUBKTNV-1">
          <mxGeometry x="280" y="60" width="230" height="90" as="geometry" />
        </mxCell>
        <mxCell id="IuVR1FB6oGhCAJvoYXbv-16" value="" style="edgeStyle=orthogonalEdgeStyle;rounded=0;orthogonalLoop=1;jettySize=auto;html=1;fontFamily=Helvetica;fontSize=12;fontColor=default;" edge="1" parent="WIyWlLk6GJQsqaUBKTNV-1" source="IuVR1FB6oGhCAJvoYXbv-7" target="IuVR1FB6oGhCAJvoYXbv-8">
          <mxGeometry relative="1" as="geometry" />
        </mxCell>
        <mxCell id="IuVR1FB6oGhCAJvoYXbv-7" value="" style="rounded=1;whiteSpace=wrap;html=1;shadow=0;glass=0;strokeColor=default;strokeWidth=1;fontFamily=Helvetica;fontSize=12;fontColor=default;fillColor=default;" vertex="1" parent="WIyWlLk6GJQsqaUBKTNV-1">
          <mxGeometry x="120" y="230" width="120" height="40" as="geometry" />
        </mxCell>
        <mxCell id="IuVR1FB6oGhCAJvoYXbv-21" style="edgeStyle=orthogonalEdgeStyle;rounded=0;orthogonalLoop=1;jettySize=auto;html=1;exitX=1;exitY=0.5;exitDx=0;exitDy=0;entryX=0;entryY=0.5;entryDx=0;entryDy=0;fontFamily=Helvetica;fontSize=12;fontColor=default;shape=link;" edge="1" parent="WIyWlLk6GJQsqaUBKTNV-1" source="IuVR1FB6oGhCAJvoYXbv-8" target="IuVR1FB6oGhCAJvoYXbv-9">
          <mxGeometry relative="1" as="geometry">
            <Array as="points">
              <mxPoint x="400" y="250" />
              <mxPoint x="400" y="250" />
            </Array>
          </mxGeometry>
        </mxCell>
        <mxCell id="IuVR1FB6oGhCAJvoYXbv-8" value="" style="rounded=1;whiteSpace=wrap;html=1;shadow=0;glass=0;strokeColor=default;strokeWidth=1;fontFamily=Helvetica;fontSize=12;fontColor=default;fillColor=default;" vertex="1" parent="WIyWlLk6GJQsqaUBKTNV-1">
          <mxGeometry x="260" y="230" width="120" height="40" as="geometry" />
        </mxCell>
        <mxCell id="IuVR1FB6oGhCAJvoYXbv-9" value="" style="rounded=1;whiteSpace=wrap;html=1;shadow=0;glass=0;strokeColor=default;strokeWidth=1;fontFamily=Helvetica;fontSize=12;fontColor=default;fillColor=default;" vertex="1" parent="WIyWlLk6GJQsqaUBKTNV-1">
          <mxGeometry x="405" y="230" width="120" height="40" as="geometry" />
        </mxCell>
        <mxCell id="IuVR1FB6oGhCAJvoYXbv-18" style="edgeStyle=orthogonalEdgeStyle;rounded=0;orthogonalLoop=1;jettySize=auto;html=1;exitX=0;exitY=0.5;exitDx=0;exitDy=0;entryX=1;entryY=0.5;entryDx=0;entryDy=0;fontFamily=Helvetica;fontSize=12;fontColor=default;" edge="1" parent="WIyWlLk6GJQsqaUBKTNV-1" source="IuVR1FB6oGhCAJvoYXbv-10" target="IuVR1FB6oGhCAJvoYXbv-9">
          <mxGeometry relative="1" as="geometry" />
        </mxCell>
        <mxCell id="IuVR1FB6oGhCAJvoYXbv-10" value="" style="rounded=1;whiteSpace=wrap;html=1;shadow=0;glass=0;strokeColor=default;strokeWidth=1;fontFamily=Helvetica;fontSize=12;fontColor=default;fillColor=default;" vertex="1" parent="WIyWlLk6GJQsqaUBKTNV-1">
          <mxGeometry x="540" y="230" width="120" height="40" as="geometry" />
        </mxCell>
        <mxCell id="IuVR1FB6oGhCAJvoYXbv-25" style="edgeStyle=orthogonalEdgeStyle;rounded=0;orthogonalLoop=1;jettySize=auto;html=1;entryX=0.5;entryY=0;entryDx=0;entryDy=0;fontFamily=Helvetica;fontSize=12;fontColor=default;" edge="1" parent="WIyWlLk6GJQsqaUBKTNV-1" source="IuVR1FB6oGhCAJvoYXbv-22" target="IuVR1FB6oGhCAJvoYXbv-23">
          <mxGeometry relative="1" as="geometry" />
        </mxCell>
        <mxCell id="IuVR1FB6oGhCAJvoYXbv-26" style="edgeStyle=orthogonalEdgeStyle;rounded=0;orthogonalLoop=1;jettySize=auto;html=1;entryX=0.75;entryY=0;entryDx=0;entryDy=0;fontFamily=Helvetica;fontSize=12;fontColor=default;" edge="1" parent="WIyWlLk6GJQsqaUBKTNV-1" source="IuVR1FB6oGhCAJvoYXbv-22" target="IuVR1FB6oGhCAJvoYXbv-24">
          <mxGeometry relative="1" as="geometry" />
        </mxCell>
        <mxCell id="IuVR1FB6oGhCAJvoYXbv-22" value="Metodologia" style="rounded=1;whiteSpace=wrap;html=1;shadow=0;glass=0;strokeColor=default;strokeWidth=1;fontFamily=Helvetica;fontSize=12;fontColor=default;fillColor=default;" vertex="1" parent="WIyWlLk6GJQsqaUBKTNV-1">
          <mxGeometry x="320" y="400" width="150" height="40" as="geometry" />
        </mxCell>
        <mxCell id="IuVR1FB6oGhCAJvoYXbv-28" style="edgeStyle=orthogonalEdgeStyle;rounded=0;orthogonalLoop=1;jettySize=auto;html=1;entryX=0.5;entryY=0;entryDx=0;entryDy=0;fontFamily=Helvetica;fontSize=12;fontColor=default;" edge="1" parent="WIyWlLk6GJQsqaUBKTNV-1" source="IuVR1FB6oGhCAJvoYXbv-23" target="IuVR1FB6oGhCAJvoYXbv-27">
          <mxGeometry relative="1" as="geometry" />
        </mxCell>
        <mxCell id="IuVR1FB6oGhCAJvoYXbv-23" value="Modelagem" style="rounded=1;whiteSpace=wrap;html=1;shadow=0;glass=0;strokeColor=default;strokeWidth=1;fontFamily=Helvetica;fontSize=12;fontColor=default;fillColor=default;" vertex="1" parent="WIyWlLk6GJQsqaUBKTNV-1">
          <mxGeometry x="120" y="480" width="120" height="40" as="geometry" />
        </mxCell>
        <mxCell id="IuVR1FB6oGhCAJvoYXbv-30" value="" style="edgeStyle=orthogonalEdgeStyle;rounded=0;orthogonalLoop=1;jettySize=auto;html=1;fontFamily=Helvetica;fontSize=12;fontColor=default;" edge="1" parent="WIyWlLk6GJQsqaUBKTNV-1" source="IuVR1FB6oGhCAJvoYXbv-24" target="IuVR1FB6oGhCAJvoYXbv-29">
          <mxGeometry relative="1" as="geometry" />
        </mxCell>
        <mxCell id="IuVR1FB6oGhCAJvoYXbv-24" value="Inversão" style="rounded=1;whiteSpace=wrap;html=1;shadow=0;glass=0;strokeColor=default;strokeWidth=1;fontFamily=Helvetica;fontSize=12;fontColor=default;fillColor=default;" vertex="1" parent="WIyWlLk6GJQsqaUBKTNV-1">
          <mxGeometry x="520" y="480" width="120" height="40" as="geometry" />
        </mxCell>
        <mxCell id="IuVR1FB6oGhCAJvoYXbv-27" value="" style="rounded=1;whiteSpace=wrap;html=1;shadow=0;glass=0;strokeColor=default;strokeWidth=1;fontFamily=Helvetica;fontSize=12;fontColor=default;fillColor=default;" vertex="1" parent="WIyWlLk6GJQsqaUBKTNV-1">
          <mxGeometry x="260" y="530" width="120" height="40" as="geometry" />
        </mxCell>
        <mxCell id="IuVR1FB6oGhCAJvoYXbv-29" value="" style="rounded=1;whiteSpace=wrap;html=1;shadow=0;glass=0;strokeColor=default;strokeWidth=1;fontFamily=Helvetica;fontSize=12;fontColor=default;fillColor=default;" vertex="1" parent="WIyWlLk6GJQsqaUBKTNV-1">
          <mxGeometry x="390" y="530" width="120" height="40" as="geometry" />
        </mxCell>
      </root>
    </mxGraphModel>
  </diagram>
</mxfile>
